<?xml version="1.0" encoding="UTF-8"?>
<svg version="1.1" xmlns="http://www.w3.org/2000/svg" width="500" height="500">
<path d="M0 0 C0.99 0 1.98 0 3 0 C3.30550781 1.05574219 3.61101562 2.11148437 3.92578125 3.19921875 C14.22007538 37.12924326 35.04541141 63.26649565 66.125 80.1875 C94.13551043 94.92127085 127.14579471 97.93583218 157.49609375 89.1171875 C191.60696668 78.241257 216.9118829 56.94592755 233.50976562 25.35205078 C237.60763223 17.20729424 240.43411189 8.73027782 243 0 C243.99 0 244.98 0 246 0 C245.42857245 5.14949249 244.24488841 9.71975305 242.375 14.5625 C241.97522949 15.60349854 241.97522949 15.60349854 241.56738281 16.66552734 C230.55269247 44.73955518 211.35063263 67.18550114 185 82 C183.92234375 82.60714844 182.8446875 83.21429688 181.734375 83.83984375 C153.44369705 98.87337843 119.41702262 102.37731795 88.62890625 93.5234375 C53.99238145 82.84577671 27.64363088 61.41926276 10.125 29.59375 C5.51888533 20.7785995 0 10.13345019 0 0 Z " fill="#010101" transform="translate(127,279)"/>
<path d="M0 0 C16.48036579 14.56032317 29.82097279 34.04028568 36.4140625 55.1328125 C36.4140625 56.4528125 36.4140625 57.7728125 36.4140625 59.1328125 C35.4240625 59.1328125 34.4340625 59.1328125 33.4140625 59.1328125 C33.08535156 58.24722656 32.75664062 57.36164063 32.41796875 56.44921875 C25.65094002 38.64560431 17.11751327 22.59508254 3.4140625 9.1328125 C2.78886719 8.44960937 2.16367187 7.76640625 1.51953125 7.0625 C-18.28642861 -14.15528999 -48.9313879 -26.41688054 -77.5859375 -27.8671875 C-78.57078125 -27.92003906 -79.555625 -27.97289063 -80.5703125 -28.02734375 C-114.81738517 -28.95185393 -146.56777522 -15.82016463 -171.35058594 7.51196289 C-186.02144895 21.72677017 -196.34109284 39.74092644 -202.5859375 59.1328125 C-203.5759375 59.1328125 -204.5659375 59.1328125 -205.5859375 59.1328125 C-205.03902657 53.43894529 -203.49522565 48.83213775 -201.1484375 43.6328125 C-200.62044556 42.45803345 -200.62044556 42.45803345 -200.08178711 41.25952148 C-185.90869634 10.76159866 -159.27372256 -13.35759654 -127.7421875 -24.90039062 C-83.13806217 -40.21941997 -35.68932859 -30.21485931 0 0 Z " fill="#010101" transform="translate(334.5859375,154.8671875)"/>
<path d="M0 0 C-0.33 12.87 -0.66 25.74 -1 39 C1.97 38.505 1.97 38.505 5 38 C5 38.66 5 39.32 5 40 C5.66 40 6.32 40 7 40 C7 33.4 7 26.8 7 20 C6.01 20 5.02 20 4 20 C4 19.01 4 18.02 4 17 C7.3 16.67 10.6 16.34 14 16 C13.67 23.92 13.34 31.84 13 40 C14.32 40 15.64 40 17 40 C16.67 41.32 16.34 42.64 16 44 C9.33333333 44 2.66666667 44 -4 44 C-4.33 43.01 -4.66 42.02 -5 41 C-5.86625 41.495 -6.7325 41.99 -7.625 42.5 C-11.20829215 44.09257429 -13.13998002 44.49276851 -17 44 C-20.67424323 42.54739221 -21.82891384 41.28514359 -23.875 37.875 C-25.49655926 33.49215697 -25.1962686 29.46769701 -24 25 C-21.74213484 20.64554577 -19.59660807 17.83864323 -15 16 C-11.95144995 15.76904924 -9.06633666 15.86270134 -6 16 C-6.33 12.37 -6.66 8.74 -7 5 C-7.99 4.67 -8.98 4.34 -10 4 C-10 3.01 -10 2.02 -10 1 C-6.37900892 -0.1141511 -4.08844645 0 0 0 Z M-16.875 22 C-19.11381002 25.16067298 -19.66921218 27.12339293 -19.44140625 30.99609375 C-18.71327154 34.30169646 -17.1006433 36.37419588 -15 39 C-9.98464948 38.67039784 -9.98464948 38.67039784 -6 36 C-5.85502015 33.41935871 -5.81322455 30.95056116 -5.875 28.375 C-5.88402344 27.66859375 -5.89304687 26.9621875 -5.90234375 26.234375 C-5.92592397 24.48943902 -5.96179539 22.74467705 -6 21 C-10.15208668 18.92395666 -13.12705085 19.39273102 -16.875 22 Z " fill="#010101" transform="translate(312,225)"/>
<path d="M0 0 C5.61 0 11.22 0 17 0 C16 4 16 4 13 6 C14.65 8.64 16.3 11.28 18 14 C18.969375 12.906875 19.93875 11.81375 20.9375 10.6875 C21.48277344 10.07261719 22.02804687 9.45773438 22.58984375 8.82421875 C24.20081559 6.94758042 24.20081559 6.94758042 25 4 C24.01 4 23.02 4 22 4 C22 2.68 22 1.36 22 0 C26.29 0 30.58 0 35 0 C35 1.32 35 2.64 35 4 C33.61590171 4.91147936 32.22547932 5.81481385 30.8046875 6.66796875 C27.17612848 9.34619088 24.17015387 13.0618294 22 17 C22.15307897 20.7887045 24.54178828 23.55850359 26.6875 26.5625 C27.68330078 27.98755859 27.68330078 27.98755859 28.69921875 29.44140625 C31.23639125 32.26287991 33.53262596 33.52673807 37 35 C36.67 36.32 36.34 37.64 36 39 C30.39 39 24.78 39 19 39 C19 37.68 19 36.36 19 35 C20.32 34.34 21.64 33.68 23 33 C21.02 30.03 19.04 27.06 17 24 C13.66442368 26.9905167 11.84916079 29.93184627 10 34 C10.66 34.33 11.32 34.66 12 35 C12 36.32 12 37.64 12 39 C7.71 39 3.42 39 -1 39 C-0.67 37.35 -0.34 35.7 0 34 C1.63394773 32.94738773 3.30667175 31.95415786 5 31 C6.67174095 29.16347695 8.27513144 27.26289295 9.8125 25.3125 C10.60269531 24.31863281 11.39289063 23.32476562 12.20703125 22.30078125 C12.79871094 21.54152344 13.39039063 20.78226563 14 20 C12.94890486 18.24312628 11.88356877 16.49476874 10.8125 14.75 C10.22082031 13.77546875 9.62914062 12.8009375 9.01953125 11.796875 C6.22646711 7.92872428 3.54242245 5.51414082 -1 4 C-0.67 2.68 -0.34 1.36 0 0 Z " fill="#010101" transform="translate(353,230)"/>
<path d="M0 0 C0 1.32 0 2.64 0 4 C2.64 4 5.28 4 8 4 C7.67 5.65 7.34 7.3 7 9 C4.36 8.67 1.72 8.34 -1 8 C-0.67 13.94 -0.34 19.88 0 26 C2.31 26 4.62 26 7 26 C7 27.32 7 28.64 7 30 C3.30513897 32.46324069 1.36706908 32.38991688 -3 32 C-5.18613812 30.4087294 -5.9022317 29.4921538 -6.43237305 26.82348633 C-6.45855713 26.00130615 -6.48474121 25.17912598 -6.51171875 24.33203125 C-6.56489258 22.99301758 -6.56489258 22.99301758 -6.61914062 21.62695312 C-6.64169922 20.69818359 -6.66425781 19.76941406 -6.6875 18.8125 C-6.72166016 17.87212891 -6.75582031 16.93175781 -6.79101562 15.96289062 C-6.87348218 13.64204607 -6.94263403 11.32157852 -7 9 C-7.99 8.67 -8.98 8.34 -10 8 C-10.33 9.65 -10.66 11.3 -11 13 C-12.32 12.67 -13.64 12.34 -15 12 C-15 10.68 -15 9.36 -15 8 C-17.31 8.33 -19.62 8.66 -22 9 C-20.54620604 12.66228969 -18.74711829 14.12098072 -15.4375 16.1875 C-11.02173913 18.97826087 -11.02173913 18.97826087 -10 20 C-9.5625 23.25 -9.5625 23.25 -10 27 C-12.80743529 30.56620158 -14.3028149 31.79492347 -18.8125 32.33984375 C-21.58163373 32.37229454 -24.25008133 32.32792897 -27 32 C-28 31 -28 31 -28.09765625 28.93359375 C-28.08605469 28.10988281 -28.07445312 27.28617187 -28.0625 26.4375 C-28.05347656 25.61121094 -28.04445312 24.78492188 -28.03515625 23.93359375 C-28.02355469 23.29550781 -28.01195312 22.65742188 -28 22 C-27.01 22 -26.02 22 -25 22 C-24.34 23.65 -23.68 25.3 -23 27 C-20.69 27 -18.38 27 -16 27 C-16.3661261 24.38719104 -16.63497224 23.2889121 -18.7421875 21.62109375 C-19.44601563 21.23050781 -20.14984375 20.83992188 -20.875 20.4375 C-23.63574141 18.88394626 -26.01010983 17.50300651 -28 15 C-28 10.87274967 -27.75435363 8.77617941 -24.83984375 5.77734375 C-21.37482949 3.60873098 -19.59368206 3.6961182 -15.5625 4 C-8.93379118 4.23968213 -5.61629711 0 0 0 Z " fill="#010101" transform="translate(198,237)"/>
<path d="M0 0 C0.598125 0.20625 1.19625 0.4125 1.8125 0.625 C1.9375 3 1.9375 3 1.8125 5.625 C1.1525 6.285 0.4925 6.945 -0.1875 7.625 C-3.72321429 7.08928571 -3.72321429 7.08928571 -5.1875 5.625 C-5.5175 7.935 -5.8475 10.245 -6.1875 12.625 C-7.5075 12.955 -8.8275 13.285 -10.1875 13.625 C-10.5175 11.975 -10.8475 10.325 -11.1875 8.625 C-14.4875 8.295 -17.7875 7.965 -21.1875 7.625 C-21.1875 11.585 -21.1875 15.545 -21.1875 19.625 C-17.5575 19.625 -13.9275 19.625 -10.1875 19.625 C-9.8575 20.615 -9.5275 21.605 -9.1875 22.625 C-9.5175 23.285 -9.8475 23.945 -10.1875 24.625 C-14.1475 24.625 -18.1075 24.625 -22.1875 24.625 C-21.8575 28.585 -21.5275 32.545 -21.1875 36.625 C-19.2075 36.955 -17.2275 37.285 -15.1875 37.625 C-15.5175 38.945 -15.8475 40.265 -16.1875 41.625 C-21.4675 41.625 -26.7475 41.625 -32.1875 41.625 C-31.8575 40.305 -31.5275 38.985 -31.1875 37.625 C-30.1975 37.625 -29.2075 37.625 -28.1875 37.625 C-28.1875 27.725 -28.1875 17.825 -28.1875 7.625 C-29.1775 7.295 -30.1675 6.965 -31.1875 6.625 C-31.1875 5.305 -31.1875 3.985 -31.1875 2.625 C-29.88039063 2.64240234 -29.88039063 2.64240234 -28.546875 2.66015625 C-20.25872009 2.7229453 -6.93806371 -1.18938235 0 0 Z " fill="#010101" transform="translate(144.1875,227.375)"/>
<path d="M0 0 C1.53333984 0.00966797 1.53333984 0.00966797 3.09765625 0.01953125 C5.9375 0.1875 5.9375 0.1875 9.9375 1.1875 C9.6075 4.8175 9.2775 8.4475 8.9375 12.1875 C7.6175 12.1875 6.2975 12.1875 4.9375 12.1875 C4.2775 10.2075 3.6175 8.2275 2.9375 6.1875 C-1.41872747 5.36131893 -4.10618373 4.89880075 -8.375 6.1875 C-11.939533 8.84017572 -12.81003446 10.94303345 -14.0625 15.1875 C-14.87505199 20.93179112 -13.75476261 25.10211508 -11.0625 30.1875 C-8.30108108 33.5012027 -6.57349359 34.13804901 -2.1875 34.5625 C1.27628709 34.53106818 1.71059074 34.40277289 4.375 31.875 C6.03856097 29.22339452 6.03856097 29.22339452 6.9375 26.1875 C8.2575 26.1875 9.5775 26.1875 10.9375 26.1875 C10.85003716 27.62611294 10.74184652 29.06347508 10.625 30.5 C10.56699219 31.30050781 10.50898438 32.10101563 10.44921875 32.92578125 C9.84250435 35.60736625 9.09387846 36.5228373 6.9375 38.1875 C0.81467837 40.22844054 -6.45215233 40.02654032 -12.5625 38.0625 C-16.5239221 35.09143342 -19.4660406 31.97687819 -21.0625 27.1875 C-21.73343005 19.76327405 -21.67367377 13.30262583 -17.0625 7.1875 C-12.14655719 1.92138044 -7.12938158 -0.09914437 0 0 Z " fill="#010101" transform="translate(235.0625,229.8125)"/>
<path d="M0 0 C1.28583984 -0.01160156 1.28583984 -0.01160156 2.59765625 -0.0234375 C5.41767109 0.45676536 6.28441861 1.06485787 7.9375 3.375 C8.86436363 6.71832953 9.52854268 10.19291464 7.9375 13.375 C2.6575 13.375 -2.6225 13.375 -8.0625 13.375 C-7.60875 14.674375 -7.155 15.97375 -6.6875 17.3125 C-6.43226563 18.04339844 -6.17703125 18.77429688 -5.9140625 19.52734375 C-5.20978587 21.56182116 -5.20978587 21.56182116 -3.0625 22.375 C0.61079964 22.50857453 3.43602959 22.5421568 6.9375 21.375 C7.2675 22.695 7.5975 24.015 7.9375 25.375 C3.27110717 28.1748357 -0.70472478 29.50632305 -6.0625 28.375 C-9.65607443 26.11237906 -11.5683452 24.3418246 -13.5 20.5625 C-14.47723481 15.02483606 -13.95984024 11.01496664 -11.25 6.0625 C-7.82915235 1.85974432 -5.52459544 -0.04999634 0 0 Z M-5.0625 4.375 C-6.9979148 6.76556942 -6.9979148 6.76556942 -8.0625 9.375 C-4.4325 9.375 -0.8025 9.375 2.9375 9.375 C2.36624646 5.63224788 2.36624646 5.63224788 0.9375 4.375 C-1.97788029 3.87457854 -1.97788029 3.87457854 -5.0625 4.375 Z " fill="#010101" transform="translate(278.0625,240.625)"/>
<path d="M0 0 C0 1.32 0 2.64 0 4 C0.53625 3.34 1.0725 2.68 1.625 2 C4 0 4 0 7.25 -0.25 C8.1575 -0.1675 9.065 -0.085 10 0 C9.67 3.3 9.34 6.6 9 10 C7.68 10 6.36 10 5 10 C5 8.68 5 7.36 5 6 C1.87802522 7.3089572 1.87802522 7.3089572 0 10 C-0.07092842 12.2072923 -0.08415025 14.41667452 -0.0625 16.625 C-0.05347656 17.81351562 -0.04445312 19.00203125 -0.03515625 20.2265625 C-0.02355469 21.14179688 -0.01195312 22.05703125 0 23 C1.32 23.33 2.64 23.66 4 24 C4 25.32 4 26.64 4 28 C-0.29 28 -4.58 28 -9 28 C-9 26.68 -9 25.36 -9 24 C-8.34 23.67 -7.68 23.34 -7 23 C-7 17.06 -7 11.12 -7 5 C-7.99 4.67 -8.98 4.34 -10 4 C-9.67 3.01 -9.34 2.02 -9 1 C-5.8035914 -0.06546953 -3.34252724 -0.07427838 0 0 Z " fill="#010101" transform="translate(160,241)"/>
<path d="M0 0 C0 1.32 0 2.64 0 4 C0.53625 3.34 1.0725 2.68 1.625 2 C4 0 4 0 7.25 -0.25 C8.1575 -0.1675 9.065 -0.085 10 0 C9.67 2.97 9.34 5.94 9 9 C7.68 9 6.36 9 5 9 C5 8.01 5 7.02 5 6 C1.87802522 7.3089572 1.87802522 7.3089572 0 10 C-0.07092842 12.2072923 -0.08415025 14.41667452 -0.0625 16.625 C-0.05347656 17.81351562 -0.04445312 19.00203125 -0.03515625 20.2265625 C-0.02355469 21.14179688 -0.01195312 22.05703125 0 23 C1.32 23.33 2.64 23.66 4 24 C4 25.32 4 26.64 4 28 C-0.29 28 -4.58 28 -9 28 C-9 26.68 -9 25.36 -9 24 C-8.34 23.67 -7.68 23.34 -7 23 C-7 17.06 -7 11.12 -7 5 C-7.99 4.67 -8.98 4.34 -10 4 C-9.67 3.01 -9.34 2.02 -9 1 C-5.8035914 -0.06546953 -3.34252724 -0.07427838 0 0 Z " fill="#010101" transform="translate(256,241)"/>
<path d="M0 0 C-0.33 1.32 -0.66 2.64 -1 4 C1.97 4 4.94 4 8 4 C7.67 5.65 7.34 7.3 7 9 C4.36 8.67 1.72 8.34 -1 8 C-0.67 13.94 -0.34 19.88 0 26 C2.31 26 4.62 26 7 26 C6.6875 27.875 6.6875 27.875 6 30 C2.53001271 32.31332486 1.07490752 32.33957563 -3 32 C-3.99 31.34 -4.98 30.68 -6 30 C-6.43237305 27.75341797 -6.43237305 27.75341797 -6.51171875 24.9921875 C-6.54716797 24.00605469 -6.58261719 23.01992188 -6.61914062 22.00390625 C-6.64169922 20.97136719 -6.66425781 19.93882812 -6.6875 18.875 C-6.72166016 17.83472656 -6.75582031 16.79445312 -6.79101562 15.72265625 C-6.87367058 13.14854493 -6.94276155 10.57478171 -7 8 C-7.99 8 -8.98 8 -10 8 C-9.875 6.25 -9.875 6.25 -9 4 C-3.88888889 0 -3.88888889 0 0 0 Z " fill="#010101" transform="translate(338,237)"/>
<path d="M0 0 C0 7.59 0 15.18 0 23 C0.99 23.33 1.98 23.66 3 24 C3 25.32 3 26.64 3 28 C-0.96 28 -4.92 28 -9 28 C-8.67 26.68 -8.34 25.36 -8 24 C-7.34 24 -6.68 24 -6 24 C-6.33 17.73 -6.66 11.46 -7 5 C-7.66 4.67 -8.32 4.34 -9 4 C-9 3.01 -9 2.02 -9 1 C-5.72921858 0.03087958 -3.60964568 0 0 0 Z " fill="#010101" transform="translate(146,241)"/>
<path d="M0 0 C11.88 0 23.76 0 36 0 C36.495 1.98 36.495 1.98 37 4 C24.79 4 12.58 4 0 4 C0 2.68 0 1.36 0 0 Z " fill="#000000" transform="translate(232,285)"/>
<path d="M0 0 C12.21 0 24.42 0 37 0 C37 0.99 37 1.98 37 3 C24.79 3 12.58 3 0 3 C0 2.01 0 1.02 0 0 Z " fill="#040505" transform="translate(232,210)"/>
<path d="M0 0 C0.598125 0.226875 1.19625 0.45375 1.8125 0.6875 C2.5 2.5 2.5 2.5 2.8125 4.6875 C1.625 6.5 1.625 6.5 -0.1875 7.6875 C-2.375 7.375 -2.375 7.375 -4.1875 6.6875 C-4.875 4.875 -4.875 4.875 -5.1875 2.6875 C-3.58493056 0.24147296 -2.95482043 -0.4221172 0 0 Z " fill="#010101" transform="translate(323.1875,227.3125)"/>
<path d="" fill="#FFFFFF" transform="translate(0,0)"/>
<path d="" fill="#FFFFFF" transform="translate(0,0)"/>
<path d="" fill="#FFFFFF" transform="translate(0,0)"/>
<path d="" fill="#FFFFFF" transform="translate(0,0)"/>
<path d="" fill="#FFFFFF" transform="translate(0,0)"/>
<path d="" fill="#FFFFFF" transform="translate(0,0)"/>
<path d="" fill="#FFFFFF" transform="translate(0,0)"/>
<path d="" fill="#FFFFFF" transform="translate(0,0)"/>
<path d="" fill="#FFFFFF" transform="translate(0,0)"/>
<path d="" fill="#FFFFFF" transform="translate(0,0)"/>
<path d="" fill="#FFFFFF" transform="translate(0,0)"/>
<path d="" fill="#FFFFFF" transform="translate(0,0)"/>
<path d="" fill="#FFFFFF" transform="translate(0,0)"/>
<path d="" fill="#FFFFFF" transform="translate(0,0)"/>
<path d="" fill="#FFFFFF" transform="translate(0,0)"/>
<path d="" fill="#FFFFFF" transform="translate(0,0)"/>
<path d="" fill="#FFFFFF" transform="translate(0,0)"/>
<path d="" fill="#FFFFFF" transform="translate(0,0)"/>
<path d="" fill="#FFFFFF" transform="translate(0,0)"/>
<path d="" fill="#FFFFFF" transform="translate(0,0)"/>
<path d="" fill="#FFFFFF" transform="translate(0,0)"/>
<path d="" fill="#FFFFFF" transform="translate(0,0)"/>
<path d="" fill="#FFFFFF" transform="translate(0,0)"/>
<path d="" fill="#FFFFFF" transform="translate(0,0)"/>
<path d="" fill="#FFFFFF" transform="translate(0,0)"/>
<path d="" fill="#FFFFFF" transform="translate(0,0)"/>
<path d="" fill="#FFFFFF" transform="translate(0,0)"/>
<path d="" fill="#FFFFFF" transform="translate(0,0)"/>
<path d="" fill="#FFFFFF" transform="translate(0,0)"/>
<path d="" fill="#FFFFFF" transform="translate(0,0)"/>
<path d="" fill="#FFFFFF" transform="translate(0,0)"/>
<path d="" fill="#FFFFFF" transform="translate(0,0)"/>
<path d="" fill="#FFFFFF" transform="translate(0,0)"/>
<path d="" fill="#FFFFFF" transform="translate(0,0)"/>
<path d="" fill="#FFFFFF" transform="translate(0,0)"/>
<path d="" fill="#FFFFFF" transform="translate(0,0)"/>
<path d="" fill="#FFFFFF" transform="translate(0,0)"/>
<path d="" fill="#FFFFFF" transform="translate(0,0)"/>
<path d="" fill="#FFFFFF" transform="translate(0,0)"/>
<path d="" fill="#FFFFFF" transform="translate(0,0)"/>
<path d="" fill="#FFFFFF" transform="translate(0,0)"/>
<path d="" fill="#FFFFFF" transform="translate(0,0)"/>
<path d="" fill="#FFFFFF" transform="translate(0,0)"/>
<path d="" fill="#FFFFFF" transform="translate(0,0)"/>
<path d="" fill="#FFFFFF" transform="translate(0,0)"/>
<path d="" fill="#FFFFFF" transform="translate(0,0)"/>
<path d="" fill="#FFFFFF" transform="translate(0,0)"/>
<path d="" fill="#FFFFFF" transform="translate(0,0)"/>
<path d="" fill="#FFFFFF" transform="translate(0,0)"/>
<path d="" fill="#FFFFFF" transform="translate(0,0)"/>
<path d="" fill="#FFFFFF" transform="translate(0,0)"/>
<path d="" fill="#FFFFFF" transform="translate(0,0)"/>
<path d="" fill="#FFFFFF" transform="translate(0,0)"/>
<path d="" fill="#FFFFFF" transform="translate(0,0)"/>
<path d="" fill="#FFFFFF" transform="translate(0,0)"/>
<path d="" fill="#FFFFFF" transform="translate(0,0)"/>
<path d="" fill="#FFFFFF" transform="translate(0,0)"/>
<path d="" fill="#FFFFFF" transform="translate(0,0)"/>
<path d="" fill="#FFFFFF" transform="translate(0,0)"/>
<path d="" fill="#FFFFFF" transform="translate(0,0)"/>
<path d="" fill="#FFFFFF" transform="translate(0,0)"/>
<path d="" fill="#FFFFFF" transform="translate(0,0)"/>
<path d="" fill="#FFFFFF" transform="translate(0,0)"/>
<path d="" fill="#FFFFFF" transform="translate(0,0)"/>
<path d="" fill="#FFFFFF" transform="translate(0,0)"/>
<path d="" fill="#FFFFFF" transform="translate(0,0)"/>
<path d="" fill="#FFFFFF" transform="translate(0,0)"/>
<path d="" fill="#FFFFFF" transform="translate(0,0)"/>
<path d="" fill="#FFFFFF" transform="translate(0,0)"/>
<path d="" fill="#FFFFFF" transform="translate(0,0)"/>
<path d="" fill="#FFFFFF" transform="translate(0,0)"/>
<path d="" fill="#FFFFFF" transform="translate(0,0)"/>
<path d="" fill="#FFFFFF" transform="translate(0,0)"/>
<path d="" fill="#FFFFFF" transform="translate(0,0)"/>
<path d="" fill="#FFFFFF" transform="translate(0,0)"/>
<path d="" fill="#FFFFFF" transform="translate(0,0)"/>
<path d="" fill="#FFFFFF" transform="translate(0,0)"/>
<path d="" fill="#FFFFFF" transform="translate(0,0)"/>
<path d="" fill="#FFFFFF" transform="translate(0,0)"/>
<path d="" fill="#FFFFFF" transform="translate(0,0)"/>
<path d="" fill="#FFFFFF" transform="translate(0,0)"/>
</svg>
